<svg width="156" height="50" viewBox="0 0 156 50" fill="none" xmlns="http://www.w3.org/2000/svg">
<g clip-path="url(#clip0_384_158)">
<path d="M42.9049 45.4667L40.3674 16.7167C40.1768 14.551 38.3924 12.9167 36.2174 12.9167C35.7178 12.9167 35.3112 13.3229 35.3112 13.8229V18.3052C35.3112 18.7489 34.9758 19.1364 34.5331 19.1646C34.0477 19.1958 33.6445 18.8114 33.6445 18.3333V8.64582C33.6445 3.87811 29.7664 -1.52588e-05 24.9987 -1.52588e-05C20.231 -1.52588e-05 16.3529 3.87811 16.3529 8.64582V12.9167H13.7799C11.6049 12.9167 9.82056 14.551 9.62994 16.7167L7.09244 45.4667C6.8789 47.8963 8.79483 50 11.2435 50H38.7539C41.2029 50 43.1185 47.896 42.9049 45.4667ZM20.207 44.4791H14.1654C13.7051 44.4791 13.332 44.106 13.332 43.6458C13.332 43.1856 13.7051 42.8125 14.1654 42.8125H20.207C20.6672 42.8125 21.0404 43.1856 21.0404 43.6458C21.0404 44.106 20.6672 44.4791 20.207 44.4791ZM20.207 40.3125H14.1654C13.7051 40.3125 13.332 39.9394 13.332 39.4791C13.332 39.0189 13.7051 38.6458 14.1654 38.6458H20.207C20.6672 38.6458 21.0404 39.0189 21.0404 39.4791C21.0404 39.9394 20.6672 40.3125 20.207 40.3125ZM31.9779 12.9167H20.5924C20.0924 12.9167 19.6862 13.3229 19.6862 13.8229V18.3052C19.6862 18.7489 19.3508 19.1364 18.9081 19.1646C18.4226 19.1958 18.0195 18.8114 18.0195 18.3333V8.64582C18.0195 4.7979 21.1508 1.66665 24.9987 1.66665C28.8466 1.66665 31.9779 4.7979 31.9779 8.64582V12.9167Z" fill="#32C33B"/>
</g>
<path d="M59.184 38.336C63.888 38.336 66.66 35.9 66.66 32.232C66.66 28.676 63.916 27.444 59.772 26.52C56.804 25.848 55.656 25.4 55.656 24C55.656 22.852 56.72 21.928 58.484 21.928C60.332 21.928 62.264 22.684 63.972 24.056L66.128 21.088C64.168 19.408 61.732 18.428 58.596 18.428C54.396 18.428 51.484 20.864 51.484 24.42C51.484 28.144 54.368 29.292 58.428 30.216C61.368 30.888 62.488 31.308 62.488 32.68C62.488 33.884 61.424 34.836 59.352 34.836C56.916 34.836 54.844 33.884 53.024 32.316L50.644 35.144C52.884 37.216 55.852 38.336 59.184 38.336ZM77.8828 23.188C76.0348 23.188 74.4388 24.028 73.5428 25.288V18.428H69.4548V38H73.5428V29.432C73.5428 27.864 74.8588 26.632 76.5668 26.632C78.1908 26.632 79.3108 27.864 79.3108 29.656V38H83.2588V28.788C83.2588 25.512 81.0188 23.188 77.8828 23.188ZM93.822 38.336C98.106 38.336 101.69 34.864 101.69 30.748C101.69 26.632 98.106 23.188 93.822 23.188C89.51 23.188 85.898 26.632 85.898 30.748C85.898 34.864 89.51 38.336 93.822 38.336ZM93.822 34.892C91.638 34.892 89.818 32.988 89.818 30.748C89.818 28.508 91.638 26.632 93.822 26.632C95.978 26.632 97.798 28.508 97.798 30.748C97.798 32.988 95.978 34.892 93.822 34.892ZM113.388 23.188C111.372 23.188 109.692 24.056 108.544 25.54V23.524H104.456V42.816H108.544V35.956C109.692 37.468 111.372 38.336 113.388 38.336C117.252 38.336 120.052 35.2 120.052 30.748C120.052 26.324 117.252 23.188 113.388 23.188ZM112.212 34.892C110.224 34.892 108.768 33.436 108.544 31.308V30.188C108.768 28.088 110.224 26.632 112.212 26.632C114.48 26.632 116.076 28.34 116.076 30.748C116.076 33.184 114.48 34.892 112.212 34.892ZM125.264 38.336C126.636 38.336 127.756 37.16 127.756 35.732C127.756 34.416 126.636 33.24 125.264 33.24C123.808 33.24 122.66 34.416 122.66 35.732C122.66 37.16 123.808 38.336 125.264 38.336ZM133.106 21.536C134.31 21.536 135.29 20.528 135.29 19.296C135.29 18.148 134.31 17.112 133.106 17.112C131.846 17.112 130.866 18.148 130.866 19.296C130.866 20.528 131.846 21.536 133.106 21.536ZM131.034 38H135.122V23.524H131.034V38ZM149.498 18.428V25.596C148.35 24.084 146.67 23.188 144.626 23.188C140.762 23.188 137.962 26.324 137.962 30.748C137.962 35.2 140.762 38.336 144.626 38.336C146.67 38.336 148.35 37.44 149.498 35.928V38H153.586V18.428H149.498ZM145.802 34.892C143.534 34.892 141.938 33.184 141.938 30.748C141.938 28.34 143.534 26.632 145.802 26.632C147.958 26.632 149.498 28.34 149.498 30.748C149.498 33.184 147.958 34.892 145.802 34.892Z" fill="#32C33B"/>
<defs>
<clipPath id="clip0_384_158">
<rect width="50" height="50" fill="white"/>
</clipPath>
</defs>
</svg>